<?xml version="1.0" encoding="UTF-8"?>
<svg width="1200" height="360" viewBox="0 0 1200 360" fill="none" xmlns="http://www.w3.org/2000/svg">
  <!-- Simple, filter-free logo for maximum compatibility -->
  <defs>
    <linearGradient id="g1" x1="0" y1="0" x2="1200" y2="360" gradientUnits="userSpaceOnUse">
      <stop offset="0" stop-color="#00F7FF"/>
      <stop offset="0.45" stop-color="#7E4DFF"/>
      <stop offset="0.75" stop-color="#B03CFF"/>
      <stop offset="1" stop-color="#FF40E6"/>
    </linearGradient>
  </defs>
  <!-- Light matrix accents on the left -->
  <g transform="translate(0,40)" opacity="0.45" stroke-linecap="round">
    <g stroke="#00F7FF" stroke-width="6" fill="#00F7FF">
      <path d="M60 0 v240"/>
      <circle cx="60" cy="60" r="3"/>
      <circle cx="60" cy="140" r="3"/>
      <circle cx="60" cy="210" r="3"/>
    </g>
    <g stroke="#7E4DFF" stroke-width="6" fill="#7E4DFF">
      <path d="M100 0 v220"/>
      <circle cx="100" cy="40" r="3"/>
      <circle cx="100" cy="120" r="3"/>
      <circle cx="100" cy="190" r="3"/>
    </g>
    <g stroke="#FF40E6" stroke-width="6" fill="#FF40E6">
      <path d="M140 0 v250"/>
      <circle cx="140" cy="50" r="3"/>
      <circle cx="140" cy="130" r="3"/>
      <circle cx="140" cy="220" r="3"/>
    </g>
    <g stroke="#00F7FF" stroke-width="6" fill="#00F7FF">
      <path d="M180 0 v210"/>
      <circle cx="180" cy="30" r="3"/>
      <circle cx="180" cy="110" r="3"/>
      <circle cx="180" cy="190" r="3"/>
    </g>
    <g stroke="#B03CFF" stroke-width="6" fill="#B03CFF">
      <path d="M220 0 v240"/>
      <circle cx="220" cy="70" r="3"/>
      <circle cx="220" cy="150" r="3"/>
      <circle cx="220" cy="230" r="3"/>
    </g>
  </g>
  <g transform="translate(40,40)" stroke="url(#g1)" fill="none" stroke-width="10" stroke-linecap="round" stroke-linejoin="round">
    <!-- VR headset -->
    <rect x="0" y="0" rx="36" ry="36" width="320" height="220"/>
    <circle cx="100" cy="110" r="46"/>
    <circle cx="220" cy="110" r="46"/>
    <path d="M0 80 H-40 C-60 80 -60 140 -40 140 H0"/>
    <path d="M320 80 H360 C380 80 380 140 360 140 H320"/>
    <!-- Layered VR text for high contrast on any background -->
    <text x="70" y="128" font-family="Segoe UI, Roboto, Arial, sans-serif" font-size="64" font-weight="800" fill="none" stroke="#0B0F14" stroke-width="6" style="stroke-linejoin: round;">VR</text>
    <text x="70" y="128" font-family="Segoe UI, Roboto, Arial, sans-serif" font-size="64" font-weight="800" fill="none" stroke="#7E4DFF" stroke-width="4.5" style="stroke-linejoin: round;">VR</text>
    <text x="70" y="128" font-family="Segoe UI, Roboto, Arial, sans-serif" font-size="64" font-weight="800" fill="none" stroke="#00F7FF" stroke-width="3" style="stroke-linejoin: round;">VR</text>
    <text x="70" y="128" font-family="Segoe UI, Roboto, Arial, sans-serif" font-size="64" font-weight="800" fill="none" stroke="#FFFFFF" stroke-width="2" style="stroke-linejoin: round;">VR</text>
    <text x="70" y="128" font-family="Segoe UI, Roboto, Arial, sans-serif" font-size="64" font-weight="800" fill="url(#g1)">VR</text>
  </g>
  <!-- Simple crown/flame strokes above the headset -->
  <g transform="translate(40,40)" stroke="url(#g1)" stroke-width="6" fill="none" stroke-linecap="round" stroke-linejoin="round">
    <path d="M240 -10 C220 -40, 290 -50, 270 -80 C330 -60, 380 -70, 420 -100 C460 -60, 500 -50, 520 -20"/>
    <path d="M190 0 C170 -30, 220 -40, 210 -60 C250 -40, 280 -50, 310 -70 C330 -40, 360 -30, 370 -10"/>
  </g>
  <!-- Wordmark -->
  <text x="420" y="150" font-family="Segoe UI, Roboto, Arial, sans-serif" font-size="96" font-weight="900" fill="none" stroke="#0B0F14" stroke-width="6" style="stroke-linejoin: round;">uevrLCX</text>
  <text x="420" y="150" font-family="Segoe UI, Roboto, Arial, sans-serif" font-size="96" font-weight="900" fill="none" stroke="#7E4DFF" stroke-width="4" style="stroke-linejoin: round;">uevrLCX</text>
  <text x="420" y="150" font-family="Segoe UI, Roboto, Arial, sans-serif" font-size="96" font-weight="900" fill="none" stroke="#00F7FF" stroke-width="3" style="stroke-linejoin: round;">uevrLCX</text>
  <text x="420" y="150" font-family="Segoe UI, Roboto, Arial, sans-serif" font-size="96" font-weight="900" fill="none" stroke="#FFFFFF" stroke-width="2" style="stroke-linejoin: round;">uevrLCX</text>
  <text x="420" y="150" font-family="Segoe UI, Roboto, Arial, sans-serif" font-size="96" font-weight="900" fill="url(#g1)">uevrLCX</text>
  <text x="420" y="200" font-family="Segoe UI, Roboto, Arial, sans-serif" font-size="28" font-weight="600" fill="none" stroke="#0B0F14" stroke-width="3" style="stroke-linejoin: round;">Universal Cross-Engine VR</text>
  <text x="420" y="200" font-family="Segoe UI, Roboto, Arial, sans-serif" font-size="28" font-weight="600" fill="none" stroke="#7E4DFF" stroke-width="2.2" style="stroke-linejoin: round;">Universal Cross-Engine VR</text>
  <text x="420" y="200" font-family="Segoe UI, Roboto, Arial, sans-serif" font-size="28" font-weight="600" fill="none" stroke="#00F7FF" stroke-width="1.6" style="stroke-linejoin: round;">Universal Cross-Engine VR</text>
  <text x="420" y="200" font-family="Segoe UI, Roboto, Arial, sans-serif" font-size="28" font-weight="600" fill="none" stroke="#FFFFFF" stroke-width="1.2" style="stroke-linejoin: round;">Universal Cross-Engine VR</text>
  <text x="420" y="200" font-family="Segoe UI, Roboto, Arial, sans-serif" font-size="28" font-weight="600" fill="url(#g1)">Universal Cross-Engine VR</text>
</svg>
